          Batman & Mr. Freeze-SubZero 1998 DVDRip Xvid fasamoo LKRG
 

RIPPER                           : fasamoo
Format                           : AVI
Format/Info                      : Audio Video Interleave
File size                        : 700 MiB
Duration                         : 1h 6mn
Overall bit rate                 : 1 470 Kbps
Writing application              : VirtualDubMod 1.5.4.1 (build 2178/release)
Writing library                  : VirtualDubMod build 2178/release
Language                         : English
Subtitles                        : English(*.srt)
                                   English ; Spanish ; French ; Portuguese(*.idx;*.sub)
Genre                            : Animation

Video
ID                               : 0
Format                           : MPEG-4 Visual
Format profile                   : Advanced Simple@L5
Format settings, BVOP            : Yes
Format settings, QPel            : No
Format settings, GMC             : No warppoints
Format settings, Matrix          : Custom
Codec ID                         : XVID
Codec ID/Hint                    : XviD
Duration                         : 1h 6mn
Bit rate                         : 1 342 Kbps
Width                            : 624 pixels
Height                           : 480 pixels
Display aspect ratio             : 1.300
Frame rate                       : 23.976 fps
Color space                      : YUV
Chroma subsampling               : 4:2:0
Bit depth                        : 8 bits
Scan type                        : Progressive
Bits/(Pixel*Frame)               : 0.187
Stream size                      : 639 MiB (91%)
Writing library                  : XviD 1.2.1 (UTC 2008-12-04)

Audio
ID                               : 1
Format                           : MPEG Audio
Format version                   : Version 1
Format profile                   : Layer 3
Mode                             : Joint stereo
Mode extension                   : MS Stereo
Codec ID                         : 55
Codec ID/Hint                    : MP3
Duration                         : 1h 6mn
Bit rate mode                    : Variable
Bit rate                         : 116 Kbps
Nominal bit rate                 : 128 Kbps
Channel(s)                       : 2 channels
Sampling rate                    : 48.0 KHz
Stream size                      : 55.2 MiB (8%)
Alignment                        : Aligned on interleaves
Interleave, duration             : 24 ms (0.58 video frame)
Interleave, preload duration     : 411 ms
Writing library                  : LAME3.98r
Encoding settings                : -m j -V 4 -q 2 -lowpass 17 --abr 128


                                 PLOT

Mr. Freeze is living in the arctic with his cryogenically-frozen wife. When a submarine destroys her containment capsule, he has to find someone to "donate" a new heart for her. His search turns up one donor with the right blood type: Barbara (Batgirl) Gordon. Her kidnapping sends Batman and Robin on a hurried chase to free her in time. 
  







                                 IMBD
                     
                    http://www.imdb.com/title/tt0143127/
 
http://leetleech.org/images/88381712128713733929.png 
http://leetleech.org/images/29261274423682660522.png 
http://leetleech.org/images/31247973323473138513.png 
http://leetleech.org/images/12356495243376758419.png 
http://leetleech.org/images/62277966614321395383.png 
http://leetleech.org/images/99649437566640924086.png 
http://leetleech.org/images/82416262212174415601.png 
http://leetleech.org/images/49730124858408922182.png